<svg width="285" height="576" viewBox="0 0 285 576" fill="none" xmlns="http://www.w3.org/2000/svg">
<path fill-rule="evenodd" clip-rule="evenodd" d="M197.319 504.052C203.243 504.052 208.111 499.375 208.347 493.456L208.613 486.824L202.763 486.59L210.328 474.618L216.913 487.156L211.064 486.922L210.798 493.554C210.509 500.789 204.559 506.505 197.319 506.505H88.2096C80.5386 506.505 74.4115 500.117 74.7308 492.453L74.9144 488.047L69.0652 487.803L76.6503 475.845L83.2142 488.393L77.3651 488.149L77.1815 492.555C76.9202 498.826 81.9334 504.052 88.2096 504.052H197.319Z" fill="white"/>
<path fill-rule="evenodd" clip-rule="evenodd" d="M136.259 486.795L143.489 474.618L150.42 486.968L144.566 486.896L143.489 575.198L141.036 575.169L142.113 486.867L136.259 486.795Z" fill="white"/>
<path fill-rule="evenodd" clip-rule="evenodd" d="M259.998 14.717H62.5466C50.3548 14.717 40.4714 24.6004 40.4714 36.7922V521.222C40.4714 533.413 50.3548 543.297 62.5466 543.297H259.998C272.189 543.297 282.073 533.413 282.073 521.222V36.7922C282.073 24.6004 272.189 14.717 259.998 14.717ZM62.5466 12.2642C49.0001 12.2642 38.0186 23.2457 38.0186 36.7922V521.222C38.0186 534.768 49.0002 545.75 62.5466 545.75H259.998C273.544 545.75 284.526 534.768 284.526 521.222V36.7922C284.526 23.2458 273.544 12.2642 259.998 12.2642H62.5466Z" fill="white"/>
<path fill-rule="evenodd" clip-rule="evenodd" d="M135.182 158.206L142.263 145.942L149.343 158.206L143.489 158.206L143.489 259.998L141.036 259.998L141.036 158.206L135.182 158.206Z" fill="white"/>
<path fill-rule="evenodd" clip-rule="evenodd" d="M144.507 322.354L143.488 381.434L141.035 381.392L142.055 322.311C142.182 314.953 148.184 309.054 155.543 309.054L189.479 309.054C195.575 309.054 200.517 304.112 200.517 298.016L200.517 296.79L194.663 296.79L201.743 284.526L208.824 296.79L202.97 296.79L202.97 298.016C202.97 305.467 196.93 311.506 189.479 311.506L155.543 311.506C149.522 311.506 144.611 316.333 144.507 322.354Z" fill="white"/>
<path fill-rule="evenodd" clip-rule="evenodd" d="M139.795 105.47L141.036 -4.59654e-05L143.489 0.0288086L142.248 105.499L139.795 105.47Z" fill="white"/>
<path fill-rule="evenodd" clip-rule="evenodd" d="M6.13202 169.244H0V166.791H6.13202C13.5826 166.791 19.6225 172.831 19.6225 180.281V296.79C19.6225 302.886 24.5642 307.827 30.6601 307.827H68.0654C74.1613 307.827 79.103 302.886 79.103 296.79H73.2488L80.3294 284.526L87.4101 296.79H81.5558C81.5558 304.24 75.516 310.28 68.0654 310.28H30.6601C23.2095 310.28 17.1697 304.24 17.1697 296.79V180.281C17.1697 174.186 12.2279 169.244 6.13202 169.244Z" fill="white"/>
<path fill-rule="evenodd" clip-rule="evenodd" d="M133.343 296.79L140.423 284.526L147.504 296.79H141.65C141.65 304.24 135.61 310.28 128.159 310.28H68.6787V307.828H128.159C134.255 307.828 139.197 302.886 139.197 296.79H133.343Z" fill="white"/>
<path fill-rule="evenodd" clip-rule="evenodd" d="M240.375 53.071L228.111 45.9903L240.375 38.9097V44.7639H250.8C258.25 44.7639 264.29 50.8038 264.29 58.2544V151.466C264.29 158.916 258.25 164.956 250.8 164.956H142.261V162.503H250.8C256.896 162.503 261.837 157.562 261.837 151.466V58.2544C261.837 52.1584 256.896 47.2167 250.8 47.2167H240.375V53.071Z" fill="white"/>
<path fill-rule="evenodd" clip-rule="evenodd" d="M240.363 196.56L228.099 189.48L240.363 182.399V188.253H250.788C258.238 188.253 264.278 194.293 264.278 201.744V314.573C264.278 322.023 258.238 328.063 250.788 328.063H142.876V325.61H250.788C256.883 325.61 261.825 320.669 261.825 314.573V201.744C261.825 195.648 256.883 190.706 250.788 190.706H240.363V196.56Z" fill="white"/>
<path fill-rule="evenodd" clip-rule="evenodd" d="M240.363 365.804L228.099 358.723L240.363 351.643V357.497H250.788C258.238 357.497 264.278 363.537 264.278 370.987V511.41C264.278 518.861 258.238 524.901 250.788 524.901H142.876V522.448H250.788C256.883 522.448 261.825 517.506 261.825 511.41V370.987C261.825 364.891 256.883 359.95 250.788 359.95H240.363V365.804Z" fill="white"/>
</svg>
