<svg width="384" height="660" viewBox="0 0 384 660" fill="none" xmlns="http://www.w3.org/2000/svg">
<path fill-rule="evenodd" clip-rule="evenodd" d="M223.464 174.593L232.464 159.593L241.464 174.593H234.023V333.593H230.905V174.593H223.464Z" fill="white"/>
<circle cx="158.615" cy="453.293" r="30.6401" stroke="white" stroke-width="3"/>
<path d="M158.615 453.293C158.615 444.832 151.756 437.973 143.295 437.973C134.834 437.973 127.975 444.832 127.975 453.293" stroke="white" stroke-width="3"/>
<path d="M189.255 453.293C189.255 461.754 182.396 468.613 173.935 468.613C165.474 468.613 158.615 461.754 158.615 453.293" stroke="white" stroke-width="3"/>
<path fill-rule="evenodd" clip-rule="evenodd" d="M232.652 443.49C231.881 443.49 231.256 444.177 231.256 445.025V452.703H224.276C223.505 452.703 222.88 453.391 222.88 454.239C222.88 455.087 223.505 455.774 224.276 455.774H231.256V463.452C231.256 464.3 231.881 464.988 232.652 464.988C233.423 464.988 234.048 464.3 234.048 463.452V455.774H241.028C241.799 455.774 242.424 455.087 242.424 454.239C242.424 453.391 241.799 452.703 241.028 452.703H234.048V445.025C234.048 444.177 233.423 443.49 232.652 443.49Z" fill="white"/>
<path fill-rule="evenodd" clip-rule="evenodd" d="M232.67 440.647C240.177 440.647 246.262 446.732 246.262 454.239C246.262 461.745 240.177 467.83 232.67 467.83C225.164 467.83 219.078 461.745 219.078 454.239C219.078 446.732 225.164 440.647 232.67 440.647ZM249.282 454.239C249.282 445.064 241.845 437.627 232.67 437.627C223.495 437.627 216.058 445.064 216.058 454.239C216.058 463.413 223.495 470.851 232.67 470.851C241.845 470.851 249.282 463.413 249.282 454.239Z" fill="white"/>
<path fill-rule="evenodd" clip-rule="evenodd" d="M223.874 348.755L232.669 333.593L241.463 348.755H234.192V439.732H231.145V348.755H223.874Z" fill="white"/>
<path fill-rule="evenodd" clip-rule="evenodd" d="M151.563 349.11L160.167 333.593L168.77 349.11H161.657V355.317C161.657 357.888 163.658 359.972 166.127 359.972H297.258C299.727 359.972 301.728 357.888 301.728 355.317V349.11H294.615L303.218 333.593L311.822 349.11L304.709 349.11V355.317C304.709 359.602 301.373 363.076 297.258 363.076H166.127C162.012 363.076 158.677 359.602 158.677 355.317V349.11H151.563Z" fill="white"/>
<path fill-rule="evenodd" clip-rule="evenodd" d="M121.719 41.0414L138.789 49.5645L121.719 58.4575V51.2577H96.4551C93.9928 51.2577 91.9967 53.2836 91.9967 55.7826V183.986C91.9967 186.485 93.9928 188.511 96.4551 188.511H231.693V191.528H96.4551C92.3512 191.528 89.0244 188.151 89.0244 183.986V55.7826C89.0244 51.6176 92.3512 48.2412 96.4551 48.2412H121.719V41.0414Z" fill="white"/>
<path fill-rule="evenodd" clip-rule="evenodd" d="M120.123 212.678L138.789 222.141L120.123 230.449V223.102H94.0458C91.5522 223.102 89.5306 225.169 89.5306 227.719V381.615C89.5306 384.165 91.5522 386.232 94.0458 386.232H232.512V389.31H94.0458C89.8897 389.31 86.5205 385.865 86.5205 381.615V227.719C86.5205 223.47 89.8897 220.025 94.0458 220.025H120.123V212.678Z" fill="white"/>
<path fill-rule="evenodd" clip-rule="evenodd" d="M223.875 597.385L232.67 582.402L241.464 597.385H234.193V627.352H231.146V597.385H223.875Z" fill="white"/>
<path fill-rule="evenodd" clip-rule="evenodd" d="M223.5 485.399L232.295 470.416L241.089 485.399H233.818V504.661H230.709L230.771 485.399H223.5Z" fill="white"/>
<path fill-rule="evenodd" clip-rule="evenodd" d="M65.5713 24.1722C65.5713 18.3777 70.2607 13.6804 76.0455 13.6804H342.389C348.174 13.6804 352.864 18.3777 352.864 24.1722V401.88C352.864 407.674 348.174 412.372 342.389 412.372H76.0455C70.2608 412.372 65.5713 407.674 65.5713 401.88V24.1722ZM76.0455 16.678C71.9135 16.678 68.5639 20.0333 68.5639 24.1722V401.88C68.5639 406.019 71.9135 409.374 76.0455 409.374H342.389C346.521 409.374 349.871 406.019 349.871 401.88V24.1722C349.871 20.0333 346.521 16.678 342.389 16.678H76.0455Z" fill="white"/>
<path fill-rule="evenodd" clip-rule="evenodd" d="M237.263 3.01286C234.77 3.01286 232.749 5.0363 232.749 7.53234V83.8096H229.739V7.53234C229.739 3.37228 233.108 -0.00012207 237.263 -0.00012207H365.66C369.815 -0.00012207 373.183 3.37227 373.183 7.53234V137.091C373.183 139.587 375.204 141.61 377.697 141.61H382.005C382.59 141.61 383.064 142.084 383.064 142.669V142.669V143.646V143.646C383.064 144.186 382.626 144.623 382.086 144.623H377.697C373.542 144.623 370.174 141.251 370.174 137.091V7.53234C370.174 5.0363 368.153 3.01286 365.66 3.01286H237.263Z" fill="white"/>
<path d="M216.29 455.194H190.187H189.255" stroke="white" stroke-width="3"/>
<line x1="194.662" y1="658.164" x2="270.361" y2="658.164" stroke="white" stroke-width="3"/>
<line x1="0.00683594" y1="225.597" x2="41.4611" y2="225.597" stroke="white" stroke-width="3"/>
<line y1="488.742" x2="111.761" y2="488.742" stroke="white" stroke-width="3"/>
</svg>
