<svg width="318" height="440" viewBox="0 0 318 440" fill="none" xmlns="http://www.w3.org/2000/svg">
<path fill-rule="evenodd" clip-rule="evenodd" d="M157.893 174.593L166.893 159.593L175.893 174.593H168.452V333.593H165.334V174.593H157.893Z" fill="white"/>
<path fill-rule="evenodd" clip-rule="evenodd" d="M158.303 348.756L167.098 333.593L175.893 348.756H168.621V439.733H165.575V348.756H158.303Z" fill="white"/>
<path fill-rule="evenodd" clip-rule="evenodd" d="M85.9927 349.11L94.5959 333.593L103.199 349.11H96.086V355.317C96.086 357.888 98.0875 359.973 100.556 359.973H231.687C234.156 359.973 236.158 357.888 236.158 355.317V349.11H229.044L237.648 333.593L246.251 349.11L239.138 349.11V355.317C239.138 359.602 235.802 363.076 231.687 363.076H100.556C96.4415 363.076 93.1058 359.602 93.1058 355.317V349.11H85.9927Z" fill="white"/>
<path fill-rule="evenodd" clip-rule="evenodd" d="M56.1476 41.0415L73.2173 49.5647L56.1476 58.4576V51.2578H30.8833C28.421 51.2578 26.4249 53.2837 26.4249 55.7827V183.986C26.4249 186.485 28.421 188.511 30.8833 188.511H166.122V191.528H30.8833C26.7795 191.528 23.4526 188.151 23.4526 183.986V55.7827C23.4526 51.6177 26.7795 48.2413 30.8833 48.2413H56.1476V41.0415Z" fill="white"/>
<path fill-rule="evenodd" clip-rule="evenodd" d="M54.5513 212.678L73.2172 222.141L54.5513 230.449V223.103H28.474C25.9804 223.103 23.9589 225.17 23.9589 227.719V381.615C23.9589 384.165 25.9804 386.232 28.474 386.232H166.94V389.31H28.474C24.3179 389.31 20.9487 385.865 20.9487 381.615V227.719C20.9487 223.47 24.3179 220.025 28.474 220.025H54.5513V212.678Z" fill="white"/>
<path fill-rule="evenodd" clip-rule="evenodd" d="M0 24.1725C0 18.378 4.68946 13.6807 10.4742 13.6807H276.818C282.603 13.6807 287.292 18.378 287.292 24.1725V401.88C287.292 407.675 282.603 412.372 276.818 412.372H10.4742C4.68946 412.372 0 407.675 0 401.88V24.1725ZM10.4742 16.6783C6.34224 16.6783 2.99263 20.0336 2.99263 24.1725V401.88C2.99263 406.019 6.34224 409.374 10.4742 409.374H276.818C280.95 409.374 284.3 406.019 284.3 401.88V24.1725C284.3 20.0336 280.95 16.6783 276.818 16.6783H10.4742Z" fill="white"/>
<path fill-rule="evenodd" clip-rule="evenodd" d="M171.691 3.01298C169.198 3.01298 167.177 5.03642 167.177 7.53246V83.8097H164.168V7.53246C164.168 3.3724 167.536 0 171.691 0H300.089C304.244 0 307.612 3.3724 307.612 7.53246V137.091C307.612 139.587 309.633 141.61 312.126 141.61H316.434C317.018 141.61 317.492 142.084 317.492 142.669V142.669V143.646V143.646C317.492 144.186 317.055 144.623 316.515 144.623H312.126C307.971 144.623 304.603 141.251 304.603 137.091V7.53246C304.603 5.03643 302.582 3.01298 300.089 3.01298H171.691Z" fill="white"/>
</svg>
