<svg width="100" height="100" viewBox="0 0 100 100" fill="none" xmlns="http://www.w3.org/2000/svg">
<path d="M97 50C97 75.9574 75.9574 97 50 97C24.0426 97 3 75.9574 3 50C3 24.0426 24.0426 3 50 3C75.9574 3 97 24.0426 97 50Z" fill="#330033" fill-opacity="0.6"/>
<path fill-rule="evenodd" clip-rule="evenodd" d="M100 50C100 77.6142 77.6142 100 50 100C22.3858 100 0 77.6142 0 50C0 22.3858 22.3858 0 50 0C77.6142 0 100 22.3858 100 50ZM50 97.0588C75.9899 97.0588 97.0588 75.9899 97.0588 50C97.0588 24.0101 75.9899 2.94118 50 2.94118C24.0101 2.94118 2.94118 24.0101 2.94118 50C2.94118 75.9899 24.0101 97.0588 50 97.0588Z" fill="#FE8AFE"/>
<path fill-rule="evenodd" clip-rule="evenodd" d="M15 42.2636H21.9752V78H42.5462V53.8077H56.4712V78H77.0292V42.2636H84L49.5214 10.0197V10L49.5109 10.0098L49.5003 10V10.0197L15 42.2636ZM49.5099 16.0614L26.2192 37.8288H26.3795V73.5652H38.1419V49.3729H60.8754V73.5652H72.6249V37.8288H72.786L49.5099 16.0614Z" fill="#FE8AFE"/>
</svg>
