<svg width="396" height="316" viewBox="0 0 396 316" fill="none" xmlns="http://www.w3.org/2000/svg">
<mask id="path-1-inside-1_290_863" fill="white">
<path fill-rule="evenodd" clip-rule="evenodd" d="M20 0C8.9543 0 0 8.95431 0 20V231C0 242.046 8.9543 251 20 251H126.285L176.5 315.5L185.591 251H376C387.046 251 396 242.046 396 231V20C396 8.95431 387.046 0 376 0H20Z"/>
</mask>
<path fill-rule="evenodd" clip-rule="evenodd" d="M20 0C8.9543 0 0 8.95431 0 20V231C0 242.046 8.9543 251 20 251H126.285L176.5 315.5L185.591 251H376C387.046 251 396 242.046 396 231V20C396 8.95431 387.046 0 376 0H20Z" fill="#330033"/>
<path d="M126.285 251L127.863 249.771L127.263 249H126.285V251ZM176.5 315.5L174.922 316.729L177.822 320.453L178.48 315.779L176.5 315.5ZM185.591 251V249H183.853L183.61 250.721L185.591 251ZM2 20C2 10.0589 10.0589 2 20 2V-2C7.84974 -2 -2 7.84974 -2 20H2ZM2 231V20H-2V231H2ZM20 249C10.0589 249 2 240.941 2 231H-2C-2 243.15 7.84973 253 20 253V249ZM126.285 249H20V253H126.285V249ZM178.078 314.271L127.863 249.771L124.707 252.229L174.922 316.729L178.078 314.271ZM183.61 250.721L174.52 315.221L178.48 315.779L187.571 251.279L183.61 250.721ZM376 249H185.591V253H376V249ZM394 231C394 240.941 385.941 249 376 249V253C388.15 253 398 243.15 398 231H394ZM394 20V231H398V20H394ZM376 2C385.941 2 394 10.0589 394 20H398C398 7.84974 388.15 -2 376 -2V2ZM20 2H376V-2H20V2Z" fill="#FE8AFE" mask="url(#path-1-inside-1_290_863)"/>
</svg>
