<svg width="100" height="100" viewBox="0 0 100 100" fill="none" xmlns="http://www.w3.org/2000/svg">
<path d="M97 50C97 75.9574 75.9574 97 50 97C24.0426 97 3 75.9574 3 50C3 24.0426 24.0426 3 50 3C75.9574 3 97 24.0426 97 50Z" fill="#330033" fill-opacity="0.6"/>
<path fill-rule="evenodd" clip-rule="evenodd" d="M100 50C100 77.6142 77.6142 100 50 100C22.3858 100 0 77.6142 0 50C0 22.3858 22.3858 0 50 0C77.6142 0 100 22.3858 100 50ZM50 97.0588C75.9899 97.0588 97.0588 75.9899 97.0588 50C97.0588 24.0101 75.9899 2.94118 50 2.94118C24.0101 2.94118 2.94118 24.0101 2.94118 50C2.94118 75.9899 24.0101 97.0588 50 97.0588Z" fill="#FE8AFE"/>
<path d="M39.8558 78V70.1429H46.9519V78H39.8558ZM46.9519 60.7143H39.8558V50.8143L63.9038 44.5286V29.2857H30V23H63.9038L71 30.0714V49.0071L46.9519 55.2929V60.7143Z" fill="#FE8AFE"/>
</svg>
