<svg width="340" height="368" viewBox="0 0 340 368" fill="none" xmlns="http://www.w3.org/2000/svg">
<path d="M85.4871 140.866C85.4871 101.027 117.8 68.7314 157.659 68.7314H239.245C279.104 68.7314 311.417 101.027 311.417 140.866V140.866C311.417 180.704 279.104 213 239.245 213H157.659C117.8 213 85.4871 180.704 85.4871 140.866V140.866Z" fill="white"/>
<path d="M85.4871 140.866C85.4871 101.027 117.8 68.7314 157.659 68.7314H239.245C279.104 68.7314 311.417 101.027 311.417 140.866V140.866C311.417 180.704 279.104 213 239.245 213H157.659C117.8 213 85.4871 180.704 85.4871 140.866V140.866Z" fill="white"/>
<path d="M116.791 140.866C116.791 126.208 128.693 114.326 143.376 114.326H252.847C267.53 114.326 279.433 126.208 279.433 140.866V140.866C279.433 155.523 267.53 167.406 252.847 167.406H143.376C128.693 167.406 116.791 155.523 116.791 140.866V140.866Z" fill="#330033"/>
<path fill-rule="evenodd" clip-rule="evenodd" d="M144.222 102.757H250.641C272.18 102.757 289.64 120.276 289.64 141.887C289.64 163.497 272.18 181.016 250.641 181.016H144.222C122.683 181.016 105.222 163.497 105.222 141.887C105.222 120.276 122.683 102.757 144.222 102.757ZM144.222 106.557C124.774 106.557 109.009 122.375 109.009 141.887C109.009 161.399 124.775 177.216 144.222 177.216H250.641C270.088 177.216 285.853 161.399 285.853 141.887C285.853 122.375 270.088 106.557 250.641 106.557H144.222Z" fill="#330033"/>
<path d="M212.987 144.5C212.987 151.127 207.614 156.5 200.987 156.5C194.359 156.5 188.987 151.127 188.987 144.5C188.987 137.872 194.359 139 200.987 139C207.614 139 212.987 137.872 212.987 144.5Z" fill="white"/>
<path d="M135.164 11.5687C135.164 17.9579 129.985 23.1374 123.596 23.1374C117.207 23.1374 112.027 17.9579 112.027 11.5687C112.027 5.17948 117.207 0 123.596 0C129.985 0 135.164 5.17948 135.164 11.5687Z" fill="white"/>
<path d="M275.35 11.5687C275.35 17.9579 270.018 23.1374 263.441 23.1374C256.864 23.1374 251.532 17.9579 251.532 11.5687C251.532 5.17948 256.864 0 263.441 0C270.018 0 275.35 5.17948 275.35 11.5687Z" fill="white"/>
<path fill-rule="evenodd" clip-rule="evenodd" d="M144.433 136.156C145.924 135.628 147.535 136.484 148.031 138.068L148.177 138.533C150.332 145.406 159.552 145.176 161.402 138.204C161.828 136.596 163.4 135.661 164.912 136.114C166.424 136.568 167.304 138.238 166.878 139.845C163.506 152.551 146.707 152.969 142.78 140.446L142.634 139.981C142.137 138.397 142.943 136.684 144.433 136.156Z" fill="white"/>
<path fill-rule="evenodd" clip-rule="evenodd" d="M235.433 136.156C236.924 135.628 238.535 136.484 239.031 138.068L239.177 138.533C241.332 145.406 250.552 145.176 252.402 138.204C252.828 136.596 254.4 135.661 255.912 136.114C257.424 136.568 258.304 138.238 257.878 139.845C254.506 152.551 237.707 152.969 233.78 140.446L233.634 139.981C233.137 138.397 233.943 136.684 235.433 136.156Z" fill="white"/>
<path fill-rule="evenodd" clip-rule="evenodd" d="M138.737 73.61L124.642 18.7939L128.312 17.85L142.408 72.666L138.737 73.61Z" fill="white"/>
<path fill-rule="evenodd" clip-rule="evenodd" d="M248.369 73.61L262.464 18.7939L258.793 17.85L244.698 72.666L248.369 73.61Z" fill="white"/>
<path d="M214.104 86.7652C214.104 90.7115 207.401 93.9106 199.132 93.9106C190.864 93.9106 184.161 90.7115 184.161 86.7652C184.161 82.819 190.864 79.6199 199.132 79.6199C207.401 79.6199 214.104 82.819 214.104 86.7652Z" fill="#330033"/>
<rect x="142.487" y="217" width="115" height="17" rx="8.5" fill="white"/>
<path d="M134.883 246.653C135.556 241.696 139.789 238 144.792 238H201.487V381.5L128.006 381.932C121.924 381.968 117.219 376.612 118.038 370.586L134.883 246.653Z" fill="white"/>
<path d="M134.883 246.653C135.556 241.696 139.789 238 144.792 238H201.487V381.5L128.006 381.932C121.924 381.968 117.219 376.612 118.038 370.586L134.883 246.653Z" fill="white"/>
<path d="M267.091 246.653C266.417 241.696 262.184 238 257.182 238H200.487V381.5L273.968 381.932C280.049 381.968 284.754 376.612 283.935 370.586L267.091 246.653Z" fill="white"/>
<path d="M267.091 246.653C266.417 241.696 262.184 238 257.182 238H200.487V381.5L273.968 381.932C280.049 381.968 284.754 376.612 283.935 370.586L267.091 246.653Z" fill="white"/>
<path fill-rule="evenodd" clip-rule="evenodd" d="M273.8 296.014C264.73 296.374 257.487 303.841 257.487 313C257.487 322.389 265.098 330 274.487 330C275.819 330 277.115 329.847 278.359 329.557L273.8 296.014Z" fill="#330033"/>
<path fill-rule="evenodd" clip-rule="evenodd" d="M269.875 267.136C260.705 264.483 254.001 256.025 254.001 246C254.001 243.178 254.532 240.479 255.5 238H257.182C262.185 238 266.418 241.696 267.091 246.653L269.875 267.136Z" fill="#330033"/>
<circle cx="276.001" cy="246" r="20" fill="white"/>
<circle cx="274.487" cy="313" r="15" fill="white"/>
<circle cx="329.487" cy="292" r="10" fill="white"/>
<rect x="296.256" y="255.919" width="37.6041" height="8" rx="4" transform="rotate(44.5695 296.256 255.919)" fill="white"/>
<rect x="321.107" y="301.64" width="30.8897" height="8" rx="4" transform="rotate(157.775 321.107 301.64)" fill="white"/>
<path fill-rule="evenodd" clip-rule="evenodd" d="M144.792 238C139.789 238 135.557 241.696 134.883 246.653L131.556 271.13C135.831 270.276 139.896 268.146 143.137 264.755C150.204 257.357 151.095 246.315 145.955 238L144.792 238Z" fill="#330033"/>
<circle cx="127.057" cy="249.493" r="20" transform="rotate(133.692 127.057 249.493)" fill="white"/>
<circle cx="35.6944" cy="198.208" r="15" transform="rotate(133.692 35.6944 198.208)" fill="white"/>
<circle cx="56.4289" cy="253.935" r="10" transform="rotate(133.692 56.4289 253.935)" fill="white"/>
<rect x="105.294" y="256.868" width="35.7283" height="8" rx="4" transform="rotate(178.261 105.294 256.868)" fill="white"/>
<rect x="47.1235" y="244.24" width="29.2363" height="8" rx="4" transform="rotate(-109.243 47.1235 244.24)" fill="white"/>
<rect x="159.5" y="252.5" width="88" height="56" rx="9.5" fill="white" stroke="#330033" stroke-width="3"/>
<rect x="164" y="257" width="79" height="47" rx="6" fill="#330033"/>
<path d="M191 280C191 282.069 190.358 284.087 189.164 285.776C187.969 287.464 186.279 288.741 184.329 289.43C182.378 290.118 180.261 290.185 178.271 289.62C176.281 289.056 174.515 287.888 173.216 286.278C171.917 284.667 171.15 282.694 171.02 280.629C170.89 278.564 171.403 276.51 172.489 274.749C173.576 272.989 175.181 271.608 177.085 270.798C178.989 269.988 181.097 269.789 183.119 270.227L181 280H191Z" fill="white"/>
<path d="M193 278C193 275.708 192.213 273.486 190.771 271.706C189.328 269.925 187.318 268.694 185.076 268.218L183 278H193Z" fill="white"/>
<rect x="198" y="280" width="4" height="9" rx="2" fill="white"/>
<rect x="203" y="278" width="4" height="11" rx="2" fill="white"/>
<rect x="233" y="282" width="4" height="7" rx="2" fill="white"/>
<rect x="208" y="271" width="4" height="18" rx="2" fill="white"/>
<rect x="218" y="274" width="4" height="15" rx="2" fill="white"/>
<rect x="228" y="276" width="4" height="13" rx="2" fill="white"/>
<rect x="223" y="267" width="4" height="22" rx="2" fill="white"/>
<rect x="213" y="281" width="4" height="8" rx="2" fill="white"/>
</svg>
