<svg width="100" height="100" viewBox="0 0 100 100" fill="none" xmlns="http://www.w3.org/2000/svg">
<circle cx="50" cy="50" r="48.5" fill="#330033" fill-opacity="0.6" stroke="#FE8AFE" stroke-width="3"/>
<circle cx="50" cy="50.2676" r="7.8125" fill="#FE8AFE"/>
<path fill-rule="evenodd" clip-rule="evenodd" d="M49.7975 80.2556C66.471 80.2556 79.9875 66.739 79.9875 50.0655C79.9875 33.392 66.471 19.8755 49.7975 19.8755C33.124 19.8755 19.6074 33.392 19.6074 50.0655C19.6074 66.739 33.124 80.2556 49.7975 80.2556ZM49.7969 74.7104C63.4079 74.7104 74.4418 63.6765 74.4418 50.0655C74.4418 36.4544 63.4079 25.4205 49.7969 25.4205C36.1859 25.4205 25.152 36.4544 25.152 50.0655C25.152 63.6765 36.1859 74.7104 49.7969 74.7104Z" fill="#FE8AFE"/>
<path d="M46.1008 14.3301H53.4943L55.3427 22.3397H44.2524L46.1008 14.3301Z" fill="#FE8AFE"/>
<path d="M46.1008 85.8008H53.4943L55.3427 77.7912H44.2524L46.1008 85.8008Z" fill="#FE8AFE"/>
<path d="M14.0625 53.7625V46.369L22.0721 44.5206V55.6108L14.0625 53.7625Z" fill="#FE8AFE"/>
<path d="M85.5327 53.7625V46.369L77.5231 44.5206V55.6108L85.5327 53.7625Z" fill="#FE8AFE"/>
<path d="M21.9154 27.4108L27.1434 22.1828L34.114 26.5394L26.272 34.3814L21.9154 27.4108Z" fill="#FE8AFE"/>
<path d="M72.4525 77.9479L77.6805 72.7199L73.3238 65.7493L65.4819 73.5912L72.4525 77.9479Z" fill="#FE8AFE"/>
<path d="M72.4525 22.1825L77.6805 27.4105L73.3238 34.3811L65.4819 26.5391L72.4525 22.1825Z" fill="#FE8AFE"/>
<path d="M21.9154 72.7196L27.1434 77.9476L34.114 73.5909L26.272 65.749L21.9154 72.7196Z" fill="#FE8AFE"/>
</svg>
